<svg xmlns="http://www.w3.org/2000/svg" width="200" height="50" viewBox="0 0 200 50"><rect width="100%" height="100%" fill="#1a365d"/><path fill="#ffffff" d="M40.675 24.145h1.21q.44 0 .77-.11.33-.12.55-.32.22-.21.33-.51.11-.29.11-.66 0-.35-.11-.63t-.32-.48q-.22-.2-.55-.3-.33-.11-.78-.11h-1.21zm-1.61-4.37h2.82q.87 0 1.51.21.63.2 1.05.57.41.36.61.87t.2 1.12q0 .63-.21 1.16-.21.52-.63.9t-1.05.59-1.48.21h-1.21v3.05h-1.61zm8.5 2.9.09.69q.29-.55.69-.87.39-.31.93-.31.43 0 .69.19l-.1 1.11q-.03.1-.09.15-.05.04-.15.04-.09 0-.27-.03-.17-.03-.34-.03-.25 0-.44.08-.19.07-.34.2-.16.14-.27.33-.12.19-.22.44v3.79h-1.49v-6.16h.87q.23 0 .32.08.09.09.12.3m5.89-.47q.69 0 1.25.22t.96.63.61 1q.22.58.22 1.31t-.22 1.32q-.21.59-.61 1-.4.42-.96.64t-1.25.22-1.25-.22-.96-.64q-.4-.41-.62-1t-.22-1.32.22-1.31q.22-.59.62-1t.96-.63 1.25-.22m0 5.2q.77 0 1.14-.52.37-.51.37-1.51 0-.99-.37-1.52-.37-.52-1.14-.52-.78 0-1.15.53-.38.52-.38 1.51t.38 1.51q.37.52 1.15.52m6.09 1.05h-1.48v-5.04l-.54-.08q-.17-.04-.28-.13-.1-.08-.1-.25v-.6h.92v-.46q0-.53.16-.95.15-.42.45-.71t.72-.45q.43-.16.96-.16.43 0 .8.12l-.03.74q-.01.09-.05.14t-.11.08q-.07.02-.16.03t-.19.01q-.27 0-.47.06-.21.05-.36.19-.14.15-.21.38-.08.23-.08.57v.41h1.6v1.05h-1.55zm3.56-3.79h2.79q0-.28-.08-.54-.08-.25-.24-.45-.16-.19-.41-.3t-.58-.11q-.64 0-1.01.37-.37.36-.47 1.03m3.78.9h-3.81q.03.47.16.82.14.34.35.57.22.22.52.33.29.11.65.11t.62-.08.46-.19l.34-.18q.15-.09.29-.09.18 0 .27.14l.43.54q-.25.29-.55.49-.31.19-.64.31-.34.11-.68.16-.35.05-.67.05-.64 0-1.19-.21-.56-.22-.96-.63-.41-.42-.65-1.04-.23-.61-.23-1.42 0-.63.2-1.19.21-.55.59-.96t.93-.65 1.24-.24q.58 0 1.07.18.49.19.85.55.35.35.55.87t.2 1.19q0 .33-.07.45t-.27.12m5.55-2.6-.34.53q-.06.1-.13.14-.06.04-.16.04-.11 0-.23-.06-.13-.06-.29-.14-.16-.07-.37-.13t-.49-.06q-.44 0-.68.18-.25.19-.25.49 0 .2.13.33.12.14.34.24.21.1.48.18t.55.18.55.22.48.31.34.45q.13.27.13.64 0 .44-.16.82-.16.37-.47.65-.31.27-.77.42-.46.16-1.06.16-.32 0-.62-.06t-.58-.16-.52-.24q-.23-.14-.41-.3l.34-.56q.06-.11.15-.16t.23-.05.26.07q.13.08.29.17t.38.17.55.08q.27 0 .46-.07.19-.06.31-.16t.18-.24q.06-.13.06-.28 0-.21-.13-.35t-.34-.24q-.22-.1-.49-.18t-.56-.18q-.28-.1-.56-.23-.27-.12-.48-.32-.22-.2-.34-.49-.13-.29-.13-.69 0-.38.15-.72.15-.35.44-.6.29-.26.72-.41.44-.15 1.01-.15.63 0 1.16.21.52.21.87.55m5.27 0-.34.53q-.06.1-.12.14-.07.04-.17.04-.11 0-.23-.06t-.29-.14q-.16-.07-.36-.13-.21-.06-.49-.06-.44 0-.69.18-.25.19-.25.49 0 .2.13.33.13.14.34.24t.48.18.55.18.55.22.49.31q.21.19.34.45.13.27.13.64 0 .44-.16.82-.16.37-.47.65-.32.27-.77.42-.46.16-1.06.16-.32 0-.62-.06-.31-.06-.59-.16t-.51-.24q-.24-.14-.42-.3l.34-.56q.07-.11.16-.16t.23-.05q.13 0 .26.07.12.08.28.17t.38.17.56.08q.26 0 .45-.07.19-.06.31-.16.13-.1.18-.24.06-.13.06-.28 0-.21-.13-.35t-.34-.24-.49-.18q-.27-.08-.55-.18-.29-.1-.56-.23-.28-.12-.49-.32t-.34-.49-.13-.69q0-.38.15-.72.15-.35.44-.6.29-.26.73-.41.43-.15 1-.15.64 0 1.16.21t.87.55m1.23-.67h1.49v6.16h-1.49zm1.69-1.79q0 .19-.08.36-.07.17-.2.29-.13.13-.31.21-.17.07-.37.07-.19 0-.36-.07-.17-.08-.3-.21-.12-.12-.2-.29-.07-.17-.07-.36 0-.2.07-.37.08-.18.2-.3.13-.13.3-.2.17-.08.36-.08.2 0 .37.08.18.07.31.2.13.12.2.3.08.17.08.37m4.03 1.7q.69 0 1.25.22t.96.63.61 1q.22.58.22 1.31t-.22 1.32q-.21.59-.61 1-.4.42-.96.64t-1.25.22-1.25-.22-.96-.64q-.4-.41-.62-1t-.22-1.32.22-1.31q.22-.59.62-1t.96-.63 1.25-.22m0 5.2q.77 0 1.14-.52.37-.51.37-1.51 0-.99-.37-1.52-.37-.52-1.14-.52-.78 0-1.15.53-.38.52-.38 1.51t.38 1.51q.37.52 1.15.52m5.46-4.84.1.49q.19-.19.39-.35.21-.15.44-.27.23-.11.5-.17.26-.06.57-.06.51 0 .9.17t.65.48.39.74q.14.43.14.94v3.92h-1.48v-3.92q0-.56-.26-.87t-.79-.31q-.38 0-.72.17-.33.18-.63.48v4.45h-1.49v-6.16h.91q.29 0 .38.27m8.73 4.3v-1.04q-.64.03-1.08.11-.43.08-.7.21-.26.13-.38.29-.11.17-.11.37 0 .39.23.56t.6.17q.46 0 .79-.17.34-.16.65-.5m-3.13-3.23-.26-.48q1.06-.97 2.55-.97.54 0 .97.18.43.17.72.49.29.31.45.75.15.44.15.96v3.89h-.67q-.21 0-.33-.06-.11-.07-.18-.26l-.13-.44q-.23.21-.45.37-.23.16-.47.26-.24.11-.51.17t-.6.06q-.39 0-.72-.11-.33-.1-.57-.31t-.37-.53q-.14-.31-.14-.72 0-.24.08-.47t.26-.44q.17-.21.46-.39.28-.19.69-.33t.96-.22q.54-.09 1.24-.11v-.36q0-.62-.26-.91-.26-.3-.76-.3-.36 0-.6.08-.24.09-.42.19-.18.11-.32.19-.15.09-.33.09-.16 0-.26-.08-.11-.09-.18-.19m5.99-4.1h1.48v8.92h-1.48zm12.07 6.87q.13 0 .24.11l.63.69q-.53.65-1.3 1t-1.85.35q-.96 0-1.73-.33-.78-.33-1.32-.92-.55-.59-.84-1.41-.29-.81-.29-1.78 0-.98.31-1.79t.88-1.4 1.35-.92q.79-.32 1.74-.32t1.69.31q.73.31 1.25.82l-.54.75q-.05.07-.12.12-.08.06-.21.06-.09 0-.19-.06-.09-.05-.21-.12-.11-.08-.26-.17t-.35-.16q-.2-.08-.46-.13t-.6-.05q-.58 0-1.07.21-.48.21-.83.6t-.54.96-.19 1.29q0 .73.21 1.3.2.57.56.96.35.39.83.6t1.03.21q.33 0 .6-.04.27-.03.49-.11.23-.08.43-.2.2-.13.4-.31.06-.05.12-.08.07-.04.14-.04m4.47-4.2q.69 0 1.25.22t.96.63.61 1q.22.58.22 1.31t-.22 1.32q-.21.59-.61 1-.4.42-.96.64t-1.25.22-1.25-.22q-.57-.22-.96-.64-.4-.41-.62-1t-.22-1.32.22-1.31q.22-.59.62-1 .39-.41.96-.63.56-.22 1.25-.22m0 5.2q.77 0 1.14-.52.37-.51.37-1.51 0-.99-.37-1.52-.37-.52-1.14-.52-.78 0-1.15.53-.38.52-.38 1.51t.38 1.51q.37.52 1.15.52m5.48-4.73.09.69q.29-.55.68-.87.4-.31.94-.31.43 0 .68.19l-.09 1.11q-.03.1-.09.15-.06.04-.15.04t-.27-.03-.34-.03q-.25 0-.44.08-.19.07-.35.2-.15.14-.27.33-.11.19-.22.44v3.79h-1.48v-6.16h.87q.23 0 .32.08.09.09.12.3m4.65 1.42v2.76q.25.31.55.44.3.12.64.12t.61-.12q.27-.13.46-.39t.29-.65.1-.93-.08-.91q-.09-.38-.25-.61-.17-.23-.4-.34t-.52-.11q-.46 0-.79.19-.32.2-.61.55m-.2-1.53.12.57q.38-.42.86-.69.48-.26 1.13-.26.5 0 .92.21t.72.61.47.98q.16.59.16 1.34 0 .69-.18 1.28-.19.59-.53 1.02-.35.43-.84.68-.49.24-1.09.24-.52 0-.89-.16-.36-.16-.65-.44v2.52h-1.48v-8.17h.9q.29 0 .38.27m8.26-.36q.68 0 1.24.22t.96.63.62 1q.21.58.21 1.31t-.21 1.32q-.22.59-.62 1-.4.42-.96.64t-1.24.22q-.69 0-1.26-.22-.56-.22-.96-.64-.4-.41-.62-1t-.22-1.32.22-1.31q.22-.59.62-1t.96-.63q.57-.22 1.26-.22m0 5.2q.77 0 1.14-.52.36-.51.36-1.51 0-.99-.36-1.52-.37-.52-1.14-.52-.78 0-1.16.53-.37.52-.37 1.51t.37 1.51q.38.52 1.16.52m5.48-4.73.09.69q.28-.55.68-.87.4-.31.94-.31.42 0 .68.19l-.1 1.11q-.03.1-.08.15-.06.04-.16.04-.09 0-.26-.03-.18-.03-.35-.03-.24 0-.44.08-.19.07-.34.2-.15.14-.27.33t-.22.44v3.79h-1.48v-6.16h.87q.23 0 .32.08.09.09.12.3m6.42 4.19v-1.04q-.65.03-1.08.11-.44.08-.71.21-.26.13-.37.29-.12.17-.12.37 0 .39.23.56t.61.17q.45 0 .79-.17.33-.16.65-.5m-3.14-3.23-.26-.48q1.06-.97 2.56-.97.54 0 .96.18.43.17.72.49.3.31.45.75t.15.96v3.89h-.67q-.21 0-.32-.06-.12-.07-.18-.26l-.14-.44q-.23.21-.45.37t-.46.26q-.24.11-.52.17-.27.06-.6.06-.39 0-.72-.11-.33-.1-.57-.31t-.37-.53q-.13-.31-.13-.72 0-.24.07-.47.08-.23.26-.44t.46-.39q.28-.19.69-.33t.96-.22q.54-.09 1.25-.11v-.36q0-.62-.27-.91-.26-.3-.76-.3-.36 0-.6.08-.23.09-.41.19-.18.11-.33.19-.15.09-.33.09-.15 0-.26-.08-.11-.09-.18-.19m8.03 4.92q-.81 0-1.24-.46-.43-.45-.43-1.25v-3.44h-.63q-.12 0-.2-.07-.08-.08-.08-.24v-.59l.99-.16.31-1.68q.03-.12.11-.18.09-.07.22-.07h.77v1.94h1.64v1.05h-1.64v3.34q0 .29.14.45t.38.16q.14 0 .24-.03.09-.03.16-.07l.12-.07q.05-.03.11-.03t.11.03q.04.03.09.1l.44.72q-.32.27-.74.41t-.87.14m3.58-3.89h2.79q0-.28-.08-.54-.08-.25-.24-.45-.16-.19-.41-.3t-.58-.11q-.64 0-1.01.37-.37.36-.47 1.03m3.78.9h-3.81q.03.47.17.82.13.34.34.57.22.22.52.33.29.11.65.11t.63-.08q.26-.08.45-.19.2-.1.34-.18.15-.09.29-.09.18 0 .27.14l.43.54q-.25.29-.55.49-.31.19-.64.31-.33.11-.68.16-.34.05-.67.05-.64 0-1.19-.21-.55-.22-.96-.63-.41-.42-.64-1.04-.24-.61-.24-1.42 0-.63.21-1.19.2-.55.58-.96t.93-.65 1.24-.24q.58 0 1.07.18.5.19.85.55.35.35.56.87.2.52.2 1.19 0 .33-.08.45-.07.12-.27.12"/></svg>